<?xml version="1.0" encoding="UTF-8"?>
<!-- Created with Inkscape (http://www.inkscape.org/) -->
<svg width="248.81" height="184.92" version="1.1" viewBox="0 0 248.81 184.92" xmlns="http://www.w3.org/2000/svg">
 <path d="m110.24 10.35c-11.664-3.0175-23.838-4.9189-35.68-7.1378-3.7401-0.70078-7.468-1.4917-11.2-2.2383-1.9517-0.39043-4.0751-1.0632-6.08-0.96394-2.9178 0.14445-5.7768 1.0964-7.8127 3.3023-0.78204 0.84736-1.3972 2.5986-2.3298 3.1932-1.0964 0.69911-3.9292 0.16444-5.2175 0.16444h-24.64c-4.2153 0-8.8092-0.57944-12.48 1.9246-4.7348 3.2299-4.8 8.2798-4.8 13.435v108.16c0 3.956-0.0621 7.8931 2.7478 11.04 3.3206 3.7189 7.3769 3.68 11.972 3.68h45.92c6.0569 0 12.748-0.7918 18.72 0.2584 5.5155 0.96994 10.982 2.2325 16.48 3.2931 3.5252 0.68 7.2886 1.1131 10.72 2.1724 4.5874 1.4161 9.1163 4.3028 13.44 6.3948 4.2728 2.0675 9.1329 3.7241 13.12 6.298 2.4569 1.5861 4.6567 3.8041 6.88 5.6999 3.7071 3.161 7.4786 6.2471 11.2 9.3914 3.458 2.9217 6.4823 6.0218 11.2 6.4649 4.9748 0.46737 8.321-3.0668 11.213-6.5328 3.6525-4.3777 7.2368-8.8556 11.019-13.12 16.22-18.287 31.259-37.637 47.208-56.16 3.9123-4.5437 7.7181-9.1798 11.588-13.76 2.4541-2.9046 5.1892-5.7331 5.3658-9.76 0.24717-5.6363-3.4215-8.678-7.3537-12.043-4.7625-4.0759-9.5902-8.0833-14.4-12.104-10.315-8.6224-20.543-17.351-30.88-25.946-3.1627-2.6297-6.285-5.3084-9.44-7.9477-1.7144-1.4342-3.3764-3.1308-5.44-4.061-3.0956-1.3954-6.7389-1.3293-9.76 0.22308-1.0091 0.51854-2.7957 2.7351-3.8424 2.6863-1.3815-0.0644-3.2413-1.4482-4.4776-2.0464-3.51-1.6983-7.0719-3.2968-10.56-5.0409-6.0785-3.0393-12.283-5.8401-18.4-8.8019-3.8059-1.8427-7.8598-4.4765-12-5.4165-4.5146-1.025-9.9321 0.94593-12 5.2979m-3.36 6.88c-4.1642 10.002-9.4046 19.669-14.089 29.44-7.3321 15.293-14.409 30.73-21.951 45.92-3.0761 6.196-5.8664 12.533-8.9599 18.72-1.8287 3.6575-4.0552 7.4555-3.0558 11.68 1.4006 5.9206 6.7425 7.9968 11.735 10.289 2.8961 1.3298 5.6966 2.8851 8.64 4.1106-0.85573 0.30613-2.1584-0.23996-3.04-0.41606-2.4539-0.49011-4.9119-0.94964-7.36-1.4702-8.8773-1.8877-17.814-3.5612-26.72-5.3136-2.1883-0.43059-4.3744-0.86786-6.56-1.312-1.631-0.33142-3.1981-0.58033-4.0522-2.2081-1.0311-1.9652 0.21958-4.9937 0.62827-7.04 1.1502-5.759 2.3431-11.514 3.4554-17.28 4.387-22.742 9.0259-45.444 13.569-68.16 1.2561-6.2812 2.6861-12.564 3.7462-18.88 0.36478-2.1735 0.4971-6.0057 2.5002-7.3386 1.4553-0.96841 3.0712-0.46697 4.6336-0.14951 2.9843 0.60639 5.9809 1.1469 8.96 1.7824 8.6122 1.8369 17.286 3.432 25.92 5.1619 3.9253 0.78647 8.2086 1.18 12 2.464m56 15.04c-0.51362 1.9751-2.9387 3.8817-4.2216 5.44-3.718 4.5164-7.537 8.949-11.286 13.44-13.258 15.884-26.528 31.771-39.945 47.52-3.7486 4.4-7.3889 8.8939-11.153 13.28-3.1845 3.7106-6.3924 7.4071-5.3223 12.64 0.71135 3.4788 3.1131 5.648 5.688 7.8609 3.0676 2.6362 6.2146 5.1796 9.28 7.8191 1.2672 1.0911 2.7872 2.0546 3.84 3.36-1.4655-0.12893-2.8612-1.0756-4.16-1.7204-2.328-1.1558-4.714-2.1973-7.04-3.3601-7.5054-3.7522-15.142-7.2701-22.72-10.872-2.2397-1.0646-4.5012-2.1014-6.72-3.208-1.5126-0.75445-2.9075-1.553-3.1233-3.3995-0.24046-2.0571 1.4284-4.316 2.282-6.08 2.1084-4.3574 4.0778-8.7891 6.2418-13.12 7.7718-15.554 14.986-31.391 22.558-47.04 5.0201-10.375 9.8839-20.83 14.917-31.2 1.1859-2.4434 2.4032-4.8843 3.5205-7.36 0.64454-1.4281 1.195-3.1031 2.724-3.8098 1.7024-0.78683 3.273 0.0457 4.8 0.80926 2.486 1.243 5.0338 2.3579 7.52 3.601 6.9739 3.487 14.088 6.7128 21.12 10.084 3.5916 1.7219 7.3773 4.2144 11.2 5.3155m-117.28-18.24c-5.0832 26.212-10.412 52.379-15.648 78.56-1.514 7.5709-3.0215 15.144-4.5121 22.72-0.76025 3.8639-2.2448 8.0458-1.5256 12 1.4264 7.8415 10.188 9.2358 16.726 10.08-1.909 0.80109-5.2814 0.16-7.36 0.16h-17.44c-2.3914 0-6.1361 0.78055-7.7379-1.4406-1.3585-1.8838-0.7421-5.1594-0.7421-7.3594v-105.92c0-2.3072-0.66699-5.8066 1.0349-7.6504 1.9911-2.157 7.1684-1.1496 9.8451-1.1496h27.36m130.88 15.741c1.8601-0.10825 3.3549 1.5512 4.64 2.6592 3.0065 2.5924 6.0736 5.1216 9.12 7.6672 12.667 10.584 25.401 21.115 37.92 31.874 3.4335 2.9507 6.9276 5.8349 10.4 8.7398 1.4912 1.2475 3.2716 2.6354 2.797 4.8394-0.43535 2.0217-2.5162 3.7437-3.7965 5.28-3.0779 3.6931-6.202 7.3468-9.28 11.04-11.422 13.705-22.939 27.333-34.453 40.96-7.4157 8.7769-14.68 17.686-22.169 26.4-1.6349 1.9024-3.2406 3.832-4.8453 5.76-1.0056 1.2082-2.0651 2.491-3.7738 2.5393-1.9206 0.0542-3.4556-1.6695-4.8-2.8158-3.0774-2.6239-6.2016-5.1933-9.28-7.8161-12.364-10.534-24.877-20.895-37.28-31.383-3.4543-2.921-6.9301-5.8204-10.4-8.7233-1.5256-1.2764-3.5041-2.6377-3.0665-4.9206 0.40187-2.0965 2.5391-3.865 3.8537-5.44 3.077-3.6865 6.1722-7.3567 9.2535-11.04 11.536-13.79 23.02-27.644 34.739-41.28 7.3514-8.5544 14.534-17.266 21.768-25.92 1.6048-1.9199 3.244-3.8106 4.813-5.76 0.99529-1.2366 2.1382-2.5602 3.8399-2.6592z" fill="#fff"/>
</svg>
