<?xml version="1.0" encoding="UTF-8"?>
<!-- Created with Inkscape (http://www.inkscape.org/) -->
<svg width="553.69" height="366.55" version="1.1" viewBox="0 0 553.69 366.55" xmlns="http://www.w3.org/2000/svg">
 <path d="m187.5 17.823v1.3333l57.333-1.3333c-9.8165-34.075-35.633-9.0348-57.333 0m122.67-2.6667 45.333-1.3333c-15.606-12.931-38.094-23.798-45.333 1.3333m62.667 8c0.55514 67.072 6.6667 134.25 6.6667 201.33 0 16.521 1.3333 32.841 1.3333 49.333 0 5.8168 1.6501 14.789-2.1379 19.695-6.586 8.5313-36.903 5.6367-47.195 5.6379 7.7629 6.4323 35.799 24.173 44.813 15.576 12.527-11.948 19.785-37.446 27.516-52.909 20.403-40.806 40.268-81.853 60.675-122.67l19.325-38.667c2.4053-4.8111 7.3428-11.621 5.4753-17.276-2.8925-8.7578-20.862-13.916-28.471-17.72l-56-28c-10.097-5.0483-20.819-12.344-32-14.337m-38.667 1.8992c-35.161 4.6167-73.848 3.4342-109.33 3.4342-9.989 0-35.686-3.2665-43.422 3.4712-4.4924 3.9125-2.3748 10.145-2.0309 15.195 0.90661 13.314-0.85484 26.735 0.88684 40 1.6785 12.783-0.19395 25.829 0.68518 38.667 2.4436 35.684 3.8807 72.227 3.8807 108 0 13.838 1.3271 27.559 1.3333 41.333 2e-3 4.7581-1.3279 12.614 3.2448 15.761 9.894 6.8096 34.717 0.78911 46.088 0.29118 29.326-1.2842 58.697-1.3835 88-2.6667 13.129-0.57495 27.049 1.6541 39.979-1.0833 8.6829-1.8381 8.0177-8.8694 8.0206-16.302 6e-3 -16.453-1.3068-32.826-1.3333-49.333-0.0774-48.227-0.53873-98.663-5.107-146.67-1.2328-12.954 4.8858-36.344-3.1122-47.422-4.4459-6.1579-21.219-3.5406-27.781-2.679m-168 3.4342c-24.801 14.476-51.644 26.151-77.333 38.996-6.9534 3.4767-23.381 8.1914-24.77 17.025-0.90125 5.7334 3.9915 12.432 6.4321 17.313l19.342 38.667c21.073 42.146 41.596 84.525 62.667 126.67 6.5904 13.181 14.009 39.708 25.947 48.528 9.0934 6.7179 27.084-7.6005 35.716-11.194v-1.3333c-9.1421 0-30.423 3.9702-36.529-4.1975-9.5168-12.73-2.0643-41.986-3.8518-57.136-5.5057-46.662-4.725-96.997-4.9517-144-0.0709-14.702-1.2628-29.377-1.3333-44-0.038-7.8704 1.7312-18.028-1.3344-25.333m108 38.667c2.4675 19.524 3.5579 39.208 6.7737 58.667 0.70007 4.2363 0.72038 16.415 5.5668 18.206 5.4464 2.0129 5.9244-9.949 6.3261-12.872 2.055-14.955 3.9984-30.233 4-45.333h1.3333c0.6868 15.994 1.505 56.306 16 65.333l6.6667-45.333h1.3333c3.4838 11.76 3.1446 25.158 4.7675 37.333 0.61552 4.6178 2.8069 12.567 1.0422 16.968-3.2801 8.1799-21.774 15.681-28.076 23.032-15.851 18.491-21.197 42.976-23.067 66.667h-1.3333c-0.78375-37.973-20.429-70.439-54.667-86.667l5.3333-56h1.3333l8 45.333c7.5603-4.7086 7.6351-11.786 9.0041-20 2.5902-15.541 3.693-31.083 5.6626-46.667h1.3333l6.6667 60c9.9318-1.5839 8.7736-11.835 9.8982-20 2.4384-17.704-0.7242-42.399 6.1018-58.667m214.67 49.333c-23.452 56.328-54.367 110.74-81.663 165.33l-20 40c-2.4274 4.8549-4.8647 12.932-10.477 14.953-6.8333 2.46-16.676-5.0315-22.527-7.9568-18.083-9.0416-36.005-19.226-54.667-26.996 12.606 18.109 30.207 33.223 45.214 49.333 4.8067 5.1601 10.757 15.391 18.786 15.391 8.0632 0 17.107-11.92 22.667-16.951 19.458-17.606 38.731-35.934 57.333-54.439 26.2-26.063 53.437-52.333 81.333-76.567 7.2259-6.2771 28.558-21.279 28.831-31.435 0.14372-5.3463-5.0791-9.6338-8.2665-13.332-9.4545-10.97-19.684-21.731-29.899-32-8.294-8.3374-15.879-20.303-26.666-25.333m-428 1.3333c-15.531 15.573-29.953 32.252-45.314 48-4.8325 4.9542-15.72 13.815-15.517 21.332 0.16016 5.9585 6.2794 9.8144 10.166 13.454 9.8175 9.1936 19.804 18.4 29.332 27.882 35.812 35.637 73.207 70.33 110.67 104.23 8.9754 8.1213 27.139 33.831 40 33.831 8.0289 0 13.979-10.231 18.786-15.391 15.007-16.11 32.608-31.225 45.214-49.333-18.908 3.3705-38.852 17.764-56 26.337-6.045 3.0225-15.563 10.229-22.613 9.0988-6.2196-0.99748-9.2734-9.072-11.487-14.103-5.9737-13.578-12.929-26.732-19.563-40l-56.675-113.33c-7.8966-15.793-14.455-39.592-26.996-52z" fill="#ad9e56"/>
</svg>
